<?xml version="1.0" standalone="no"?>
<!DOCTYPE svg PUBLIC "-//W3C//DTD SVG 20010904//EN"
 "http://www.w3.org/TR/2001/REC-SVG-20010904/DTD/svg10.dtd">
<svg version="1.0" xmlns="http://www.w3.org/2000/svg"
 width="130.000000pt" height="101.000000pt" viewBox="0 0 130.000000 101.000000"
 preserveAspectRatio="xMidYMid meet">
<metadata>
Created by potrace 1.10, written by Peter Selinger 2001-2011
</metadata>
<g transform="translate(0.000000,101.000000) scale(0.100000,-0.100000)"
fill="#000000" stroke="none">
<path d="M722 947 c-77 -79 -106 -196 -62 -255 11 -15 35 -62 53 -104 l34 -77
38 51 c43 56 74 135 75 189 0 65 -31 150 -81 216 l-16 22 -41 -42z m75 -54
c47 -106 42 -210 -13 -296 -27 -41 -38 -41 -48 0 -4 16 -23 53 -42 85 -32 53
-44 110 -25 122 4 3 11 18 14 33 6 32 62 113 78 113 5 0 22 -26 36 -57z"/>
<path d="M1192 842 c-39 -61 -122 -139 -167 -158 -41 -17 -80 -10 -112 18
l-21 20 -7 -34 c-11 -53 -62 -141 -117 -202 -57 -64 -136 -121 -253 -183 -44
-23 -77 -43 -72 -43 4 0 51 9 105 21 120 26 235 69 326 123 89 52 210 173 259
256 37 65 102 219 94 226 -2 2 -18 -18 -35 -44z m-81 -176 c-36 -61 -158 -187
-217 -222 -81 -48 -153 -83 -214 -104 -64 -22 -90 -21 -48 1 52 28 146 113
195 177 12 16 34 55 49 88 14 32 27 60 28 61 1 1 18 -2 37 -8 46 -14 104 1
154 41 21 17 40 28 43 26 2 -3 -10 -29 -27 -60z" fill="#c92a02"/>
<path d="M228 873 c-10 -2 -18 -8 -18 -11 0 -27 45 -163 66 -198 27 -46 106
-124 126 -124 7 0 -1 -8 -17 -19 -17 -10 -50 -40 -73 -67 l-43 -48 23 -18 c13
-10 47 -25 77 -34 105 -32 212 -3 310 84 l45 39 -90 6 c-97 6 -188 34 -241 74
-18 14 -48 48 -67 77 -33 49 -76 158 -76 190 0 37 172 25 285 -20 32 -13 60
-22 62 -20 8 7 -119 67 -172 81 -56 14 -158 18 -197 8z m207 -373 c3 -5 16
-10 29 -10 12 0 27 -5 34 -12 7 -7 12 -9 12 -6 0 3 24 0 53 -7 28 -6 62 -11
75 -10 21 2 21 1 5 -17 -39 -44 -106 -70 -179 -72 -39 0 -82 4 -95 11 -13 6
-32 14 -41 17 -29 9 -21 32 28 75 47 41 68 49 79 31z" fill="#180152"/>
<path d="M935 845 c-45 -44 -25 -117 35 -130 53 -12 108 41 96 91 -16 61 -88
83 -131 39z m94 -23 c16 -29 2 -71 -27 -79 -14 -3 -32 -1 -41 4 -20 13 -26 60
-10 79 16 20 66 18 78 -4z" fill="#126304"/>
<path d="M290 802 c0 -51 44 -138 94 -188 61 -61 134 -92 242 -101 l74 -6 -16
54 c-51 173 -142 248 -311 257 -79 4 -83 3 -83 -16z m111 -13 c58 -2 83 -11
141 -46 47 -29 105 -116 114 -172 l7 -44 -49 7 c-79 11 -104 17 -104 26 0 4
-13 10 -30 13 -58 12 -135 102 -154 180 -7 29 0 51 13 43 4 -3 32 -6 62 -7z" fill="#126304"/>
<path d="M175 778 c-101 -37 -151 -107 -143 -202 21 -254 406 -538 712 -524
102 4 165 32 204 91 37 56 37 148 -1 227 -22 46 -25 49 -19 20 26 -127 -28
-228 -139 -260 -48 -14 -155 -12 -216 4 -294 78 -532 378 -444 560 13 26 37
54 57 66 50 31 45 38 -11 18z m-80 -170 c0 -69 5 -93 27 -141 29 -62 132 -200
142 -190 3 4 6 1 6 -5 0 -24 -19 -10 -84 59 -109 117 -153 241 -117 327 7 17
16 32 20 32 3 0 6 -37 6 -82z m235 -384 c0 -2 -7 -4 -15 -4 -8 0 -15 4 -15 10
0 5 7 7 15 4 8 -4 15 -8 15 -10z m30 -24 c8 -5 11 -10 5 -10 -5 0 -17 5 -25
10 -8 5 -10 10 -5 10 6 0 17 -5 25 -10z m580 -14 c0 -23 -40 -66 -83 -88 -36
-18 -58 -21 -146 -20 -57 0 -108 5 -113 10 -5 5 30 8 84 8 82 0 100 3 151 28
31 15 65 38 75 51 19 27 32 32 32 11z m-505 -34 c-3 -3 -11 0 -18 7 -9 10 -8
11 6 5 10 -3 15 -9 12 -12z m95 -32 c30 -10 48 -19 39 -20 -20 0 -81 20 -93
31 -14 13 -7 11 54 -11z" fill="#180152" stroke="#180152"/>
</g>
</svg>
